<svg xmlns="http://www.w3.org/2000/svg" width="70" height="70" viewBox="0 0 70 70" style="width: 100%; height: 100%;"><desc>Made with illustrio</desc>
  
<g class="content"><path class="secondary-fill" d="M15.5005733 13.2148148L14.8755733 12.5851852 14.8755733 15.0816633C14.8755733 15.4293982 15.1553953 15.711293 15.5005733 15.711293L18.5 15.711293 17.875 15.0816633 17.875 17.6222222C17.875 17.9699571 18.154822 18.2518519 18.5 18.2518519 18.845178 18.2518519 19.125 17.9699571 19.125 17.6222222L19.125 15.0816633C19.125 14.7339285 18.845178 14.4520337 18.5 14.4520337L15.5005733 14.4520337 16.1255733 15.0816633 16.1255733 12.5851852C16.1255733 12.2374503 15.8457513 11.9555556 15.5005733 11.9555556L12.5 11.9555556C12.154822 11.9555556 11.875 12.2374503 11.875 12.5851852 11.875 12.93292 12.154822 13.2148148 12.5 13.2148148L15.5005733 13.2148148zM39.875 61.9781628L40.5 61.3485332 38.5175027 61.3485332C38.1723247 61.3485332 37.8925027 61.630428 37.8925027 61.9781628L37.8925027 63.9925926 38.5175027 63.362963 36.5 63.362963C36.154822 63.362963 35.875 63.6448578 35.875 63.9925926 35.875 64.3403274 36.154822 64.6222222 36.5 64.6222222L38.5175027 64.6222222C38.8626806 64.6222222 39.1425027 64.3403274 39.1425027 63.9925926L39.1425027 61.9781628 38.5175027 62.6077925 40.5 62.6077925C40.845178 62.6077925 41.125 62.3258977 41.125 61.9781628L41.125 59.962963C41.125 59.6152281 40.845178 59.3333333 40.5 59.3333333 40.154822 59.3333333 39.875 59.6152281 39.875 59.962963L39.875 61.9781628zM22.0085834 53.2696685C22.209214 52.986705 22.1441567 52.5934698 21.8632739 52.391353 21.582391 52.1892362 21.1920472 52.2547754 20.9914166 52.5377389L18.4914166 56.0636648C18.290786 56.3466283 18.3558433 56.7398636 18.6367261 56.9419803 18.917609 57.1440971 19.3079528 57.0785579 19.5085834 56.7955944L22.0085834 53.2696685zM56.2155706 56.1589774C56.4768377 56.3862307 56.871507 56.3570882 57.0970893 56.0938858 57.3226715 55.8306835 57.2937433 55.4330906 57.0324763 55.2058374L54.4084528 52.92343C54.1471858 52.6961767 53.7525164 52.7253192 53.5269342 52.9885216 53.3013519 53.251724 53.3302801 53.6493168 53.5915472 53.87657L56.2155706 56.1589774zM13.125 43.0888889C13.125 41.2111207 11.613961 39.6888889 9.75 39.6888889 7.88603897 39.6888889 6.375 41.2111207 6.375 43.0888889 6.375 44.966657 7.88603897 46.4888889 9.75 46.4888889 11.613961 46.4888889 13.125 44.966657 13.125 43.0888889zM7.625 43.0888889C7.625 41.9065904 8.57639491 40.9481481 9.75 40.9481481 10.9236051 40.9481481 11.875 41.9065904 11.875 43.0888889 11.875 44.2711874 10.9236051 45.2296296 9.75 45.2296296 8.57639491 45.2296296 7.625 44.2711874 7.625 43.0888889z" style="fill-opacity: 0.5;"></path><ellipse class="secondary-fill" cx="28" cy="7.059" rx="1" ry="1.007" style="fill-opacity: 0.5;"></ellipse><ellipse class="secondary-fill" cx="17.25" cy="58.696" rx=".75" ry=".756" style="fill-opacity: 0.5;"></ellipse><ellipse class="secondary-fill" cx="63.25" cy="28.563" rx=".75" ry=".756" style="fill-opacity: 0.5;"></ellipse><ellipse class="secondary-fill" cx="59.75" cy="44.615" rx="1.25" ry="1.259" style="fill-opacity: 0.5;"></ellipse><path class="secondary-fill" d="M60.625 23.1703704C60.625 21.709884 59.4497475 20.5259259 58 20.5259259 56.5502525 20.5259259 55.375 21.709884 55.375 23.1703704 55.375 24.6308567 56.5502525 25.8148148 58 25.8148148 59.4497475 25.8148148 60.625 24.6308567 60.625 23.1703704zM56.625 23.1703704C56.625 22.4053537 57.2406085 21.7851852 58 21.7851852 58.7593915 21.7851852 59.375 22.4053537 59.375 23.1703704 59.375 23.935387 58.7593915 24.5555556 58 24.5555556 57.2406085 24.5555556 56.625 23.935387 56.625 23.1703704zM46.5097284 8.49918509C46.6341707 8.17483441 46.4740463 7.81026855 46.1520806 7.68490444 45.8301148 7.55954033 45.4682296 7.72085081 45.3437873 8.04520149L43.9170295 11.7639515C43.7925871 12.0883022 43.9527115 12.452868 44.2746773 12.5782321 44.596643 12.7035962 44.9585282 12.5422858 45.0829705 12.2179351L46.5097284 8.49918509zM8.06945383 26.5440251C7.72548948 26.514891 7.42320713 26.7721769 7.3942873 27.1186891 7.36536747 27.4652013 7.62076151 27.7697228 7.96472586 27.7988569L10.3690227 28.0025027C10.7129871 28.0316368 11.0152694 27.7743509 11.0441893 27.4278387 11.0731091 27.0813264 10.8177151 26.776805 10.4737507 26.7476709L8.06945383 26.5440251z" style="fill-opacity: 0.5;"></path><g class="base"><g fill="none" fill-rule="evenodd" stroke="none" class="main-fill">
    
    <path fill="none" d="M20.3711667,0.0448 C20.7291,0.86415 20.9685583,2.23556667 20.6175667,3.23505 C22.0424167,4.45999167 22.546825,7.42945 21.847175,9.86778333 C23.8891917,10.0270333 26.3193583,9.79574167 27.8929583,10.4210167 C26.42395,10.23155 24.4133167,9.863175 22.52705,9.98754167 C22.1691167,10.0142583 21.6309917,9.9736 21.6577083,10.4780083 C23.8589167,10.653475 26.038075,10.8348333 27.8348583,11.39845 C26.0439083,11.1078917 23.8833583,10.66625 21.6577083,10.60115 C20.7512083,12.404875 18.9021,13.2997667 16.3499,13.4880667 C16.6230167,14.086625 17.1576417,14.3085833 17.276175,15.2790167 C17.46675,16.7027 16.99145,18.79815 17.4633083,19.7523667 C17.700375,20.2126167 18.0804167,20.2195583 18.3303167,20.6042667 C17.7062083,21.355075 16.1569917,20.5228917 15.9861333,19.7523667 C15.6863,18.4193333 16.4463833,16.3541 15.611925,15.4510417 C15.670025,16.9015 15.278375,18.9422917 15.670025,20.2428333 C15.8327167,20.7565167 16.2918,20.949425 16.1744333,21.413175 C13.2689083,21.7095083 14.4834083,17.6580833 14.005775,15.2674083 C13.5699667,15.3080667 13.7605417,15.9205667 13.759375,16.1867417 C13.7477667,18.5262583 14.2370667,21.7188417 11.7266917,21.4108417 C11.6499833,20.923875 12.0672417,20.7565167 12.2206,20.3021 C12.6820167,18.99345 12.1357833,17.0328083 12.3438,15.4510417 C11.3861417,16.1809083 12.4483917,18.698225 11.8521667,19.9987667 C11.5116167,20.7379083 10.406375,21.0645167 9.56608333,20.7367417 C9.67534167,20.184675 10.2482917,20.2707167 10.4923583,19.7523667 C10.8317417,19.026 10.493525,17.9881333 10.6143917,16.92355 C8.83971667,17.2792083 7.4648,16.8723917 6.78725833,15.7555417 C6.48859167,15.2593 6.41649167,14.6642417 6.05039167,14.2261 C5.69356667,13.785625 5.11134167,13.7298583 4.93698333,13.1289667 C7.13935833,12.593175 7.2219,15.3906083 9.19881667,15.4510417 C9.80781667,15.475425 10.120425,15.28135 10.6806,15.1500417 C10.8409583,14.44345 11.1722333,13.9227667 11.664975,13.546225 C9.210425,13.216175 7.18118333,12.4502583 6.23863333,10.602375 C4.004875,10.7128 1.960525,11.0114667 0.0614833333,11.4682167 C1.78505833,10.845275 3.900225,10.6163167 6.17353333,10.5454417 C6.03639167,9.74003333 4.86488333,9.960825 4.13968333,9.98876667 C2.78115833,10.04325 1.07619167,10.2163833 0,10.4209583 C1.564325,9.86428333 3.746925,9.93399167 5.85981667,9.929325 C5.21593333,7.90125 5.43795,4.67850833 6.85235833,3.47678333 C6.45254167,2.4703 6.57690833,0.8316 7.096425,0.0448 C8.673525,0.113341667 9.626575,0.796775 10.6190583,1.45920833 C11.8451667,1.10821667 13.1294333,0.931583333 14.8134583,1.02456667 C15.5212167,1.06405833 16.2545833,1.380225 16.7811,1.3349 C17.3006167,1.28374167 17.8735667,0.699183333 18.38725,0.469058333 C19.0462417,0.180775 19.6099167,0.07035 20.3711667,0.0448 L20.3711667,0.0448 Z" transform="translate(21 24.267)" stroke="none" class="main-fill"></path>
  </g></g></g><style>
          .main-fill {fill: #FABD3C;}
          .main-stroke {stroke: #FABD3C;}
          .secondary-fill {fill: #85234A;}
          .secondary-stroke {stroke: #85234A;}

          .main-fill--darken {fill: #e49c06;}
          .main-stroke--darken {stroke: #e49c06;}
          .secondary-fill--darken {fill: #481328;}
          .secondary-stroke--darken {stroke: #481328;}

          .main-fill--darkener {fill: #b27a05;}
          .main-stroke--darkener {stroke: #b27a05;}
          .secondary-fill--darkener {fill: #200812;}
          .secondary-stroke--darkener {stroke: #200812;}
        </style></svg>